<svg width="80" height="80" viewBox="0 0 80 80" fill="none" xmlns="http://www.w3.org/2000/svg">
<path d="M28.1935 71.1878C27.6134 70.6076 27.0634 70.4176 26.2933 70.4176H18.2723C12.2915 70.4176 9.61119 67.7169 9.61119 61.7554V53.7334C9.61119 52.9632 9.39116 52.4131 8.84109 51.833L3.16038 46.1215C-1.03014 41.9005 -1.06015 38.1495 3.16038 33.9285L8.84109 28.187C9.39116 27.6369 9.61119 27.0868 9.61119 26.3066V18.2546C9.61119 12.2731 12.2815 9.62241 18.2723 9.62241H26.2933C27.0634 9.62241 27.6434 9.40235 28.1935 8.85222L33.9042 3.17079C38.1248 -1.05026 41.8752 -1.08027 46.0957 3.17079L51.8065 8.85222C52.3865 9.40235 52.9366 9.62241 53.7067 9.62241H61.7277C67.7085 9.62241 70.3888 12.3231 70.3888 18.2546V26.3066C70.3888 27.0768 70.6088 27.6269 71.1589 28.187L76.8396 33.9285C81.0301 38.1495 81.0601 41.9005 76.8396 46.1215L71.1589 51.833C70.6088 52.4131 70.3888 52.9632 70.3888 53.7334V61.7554C70.3888 67.7369 67.6884 70.4176 61.7277 70.4176H53.7067C52.9366 70.4176 52.3865 70.6076 51.8065 71.1878L46.0957 76.8392C41.8752 81.0303 38.1248 81.0603 33.9042 76.8392L28.1935 71.1878ZM42.7053 73.4484L49.4862 66.6667C50.2263 65.8665 51.0264 65.5864 52.0765 65.5864H61.7277C64.9781 65.5864 65.5582 64.9763 65.5582 61.7554V52.073C65.5582 51.0228 65.8882 50.2226 66.6383 49.4824L73.4492 42.7207C75.7395 40.4001 75.7395 39.6299 73.4492 37.3193L66.6383 30.5376C65.8982 29.7975 65.5582 28.9973 65.5582 27.947V18.2646C65.5582 15.0338 64.9781 14.4536 61.7277 14.4536H52.0765C51.0264 14.4536 50.2263 14.1535 49.4862 13.3733L42.7053 6.57164C40.385 4.28107 39.6149 4.28107 37.3046 6.57164L30.5238 13.3833C29.7837 14.1535 29.0036 14.4636 27.9635 14.4636H18.2823C15.0019 14.4636 14.4518 15.0138 14.4518 18.2746V27.957C14.4518 29.0073 14.1218 29.8075 13.3717 30.5476L6.56081 37.3293C4.30052 39.6499 4.30052 40.4201 6.56081 42.7307L13.3717 49.4924C14.1117 50.2326 14.4518 51.0328 14.4518 52.083V61.7654C14.4518 64.9963 15.0619 65.5964 18.2823 65.5964H27.9635C29.0136 65.5964 29.7837 65.8765 30.5238 66.6767L37.3046 73.4584C39.6149 75.7389 40.385 75.7389 42.7053 73.4484ZM32.444 56.2141L20.9426 43.2808C20.4725 42.8107 20.2525 42.2306 20.2525 41.6304C20.2525 40.2201 21.3327 39.1998 22.8128 39.1998C23.5829 39.1998 24.193 39.4499 24.6931 40L34.2643 50.6727L52.4865 24.9062C53.0966 24.076 53.6467 23.7159 54.6668 23.7159C56.077 23.7159 57.1471 24.7662 57.1471 26.1465C57.1471 26.6667 56.9271 27.2468 56.5971 27.7169L36.3845 56.074C35.9445 56.6542 35.2544 57.0443 34.3443 57.0443C33.4942 57.0443 32.9141 56.7142 32.444 56.2141Z" fill="white"/>
</svg>
